<svg width="24.000000" height="24.000000" viewBox="0 0 24 24" fill="none" xmlns="http://www.w3.org/2000/svg" xmlns:xlink="http://www.w3.org/1999/xlink">
	<path d="M2.5 19L2.5 6.2L4.1 6.2L7 13.5L9.9 6.2L11.5 6.2L11.5 19L9.9 19L9.9 9.8L7.6 15.8L6.4 15.8L4.1 9.8L4.1 19L2.5 19Z" fill-rule="evenodd" fill="currentColor"/>
	<path d="M21.4 16.57Q21.8 15.41 21.8 13.72L21.8 11.43Q21.78 8.85 20.65 7.44Q20.28 6.97 19.79 6.65Q18.84 6.03 17.48 6.03Q16.21 6.03 15.28 6.6Q14.74 6.94 14.31 7.47Q13.18 8.92 13.18 11.5L13.18 13.83Q13.21 16.37 14.36 17.77Q14.79 18.29 15.33 18.62Q16.24 19.18 17.51 19.18Q18.02 19.18 18.58 19.06L20.88 21.16L21.97 20.1L20.06 18.38Q20.9 17.73 21.4 16.57ZM19.53 8.47Q20.19 9.46 20.19 11.49L20.19 13.94Q20.16 15.88 19.5 16.81Q19.29 17.11 19.01 17.31Q18.42 17.74 17.51 17.74Q16.7 17.74 16.14 17.38Q15.75 17.13 15.48 16.71Q14.8 15.69 14.8 13.72L14.8 11.43Q14.81 9.48 15.49 8.48Q15.76 8.07 16.14 7.83Q16.7 7.48 17.48 7.48Q18.4 7.48 19 7.91Q19.31 8.13 19.53 8.47Z" fill-rule="evenodd" fill="currentColor"/>
</svg>
